<?xml version="1.0" standalone="no"?>
<!DOCTYPE svg PUBLIC "-//W3C//DTD SVG 20010904//EN"
 "http://www.w3.org/TR/2001/REC-SVG-20010904/DTD/svg10.dtd">
<svg version="1.0" xmlns="http://www.w3.org/2000/svg"
 width="225.000000pt" height="225.000000pt" viewBox="0 0 225.000000 225.000000"
 preserveAspectRatio="xMidYMid meet">
<metadata>
Created by potrace 1.14, written by Peter Selinger 2001-2017
</metadata>
<g transform="translate(0.000000,225.000000) scale(0.100000,-0.100000)"
fill="#000000" stroke="none">
<path d="M1005 2239 c-104 -14 -240 -55 -310 -94 -34 -19 -64 -33 -67 -30 -12
12 -140 -121 -195 -202 -159 -235 -207 -437 -169 -708 20 -135 45 -245 81
-342 l24 -67 -38 -36 c-20 -20 -43 -52 -50 -71 -7 -18 -22 -55 -32 -81 -30
-74 -26 -156 11 -222 17 -30 47 -67 67 -82 44 -33 140 -60 252 -69 72 -6 97
-14 165 -50 45 -23 110 -50 146 -59 36 -10 77 -24 91 -32 45 -23 178 -29 255
-11 38 8 96 21 129 27 32 7 66 16 75 21 8 4 40 19 70 34 30 14 75 39 100 54
38 25 59 30 135 35 50 3 97 7 105 9 46 8 138 86 125 107 -3 6 0 12 7 15 18 7
23 41 21 138 -1 68 -4 83 -29 118 -15 22 -50 61 -77 85 l-49 44 36 76 c61 124
76 202 76 395 0 174 -25 393 -53 474 -19 52 -109 218 -143 263 -52 68 -264
211 -362 244 -67 23 -284 33 -397 17z m755 -838 c0 -28 5 -53 11 -57 6 -3 9
-23 7 -44 -2 -22 1 -36 6 -33 5 4 6 -13 3 -42 -4 -26 -8 -60 -8 -74 -1 -25 -2
-25 -9 4 l-8 30 -1 -32 c0 -18 -5 -33 -10 -33 -5 0 -23 -21 -40 -47 -17 -25
-31 -40 -31 -33 0 7 -13 -6 -30 -28 -46 -63 -63 -82 -77 -82 -7 0 -13 -9 -13
-20 0 -10 -9 -24 -20 -30 -14 -8 -19 -17 -15 -29 4 -13 -1 -20 -15 -24 -29 -8
-26 -37 5 -37 14 0 25 5 25 10 0 6 8 10 18 10 10 0 23 5 29 11 18 18 49 -16
33 -36 -7 -8 -15 -14 -18 -13 -15 4 -72 -14 -72 -23 0 -16 -45 -10 -56 9 -8
13 -24 17 -65 17 -46 0 -54 -3 -52 -19 1 -13 -2 -15 -10 -7 -7 7 -7 14 2 24 9
12 8 16 -4 21 -9 3 -13 2 -10 -4 3 -6 -1 -7 -9 -4 -29 11 -20 76 17 120 18 21
51 66 73 99 22 33 66 98 98 145 32 47 80 126 107 177 26 50 50 86 53 80 2 -7
5 -3 5 7 1 19 1 19 14 1 16 -21 37 -12 37 16 0 10 7 19 15 19 11 0 15 -12 15
-49z m-1186 -33 c-2 -3 0 -9 6 -13 6 -4 7 -11 4 -17 -4 -6 -2 -8 3 -5 12 7 40
-33 104 -147 41 -74 97 -145 218 -276 50 -54 67 -100 36 -100 -17 0 -19 -12
-5 -26 11 -11 -27 -77 -45 -78 -5 0 -16 -6 -24 -13 -7 -8 -20 -12 -27 -9 -7 3
-16 1 -19 -4 -6 -10 -52 -4 -95 12 -14 5 -25 8 -25 7 0 -6 -48 36 -73 63 -14
15 -30 25 -36 21 -6 -3 -8 -3 -4 2 4 4 -6 24 -23 43 -17 19 -38 51 -46 71 -9
20 -25 55 -36 79 -10 23 -16 49 -13 58 3 8 2 13 -3 10 -11 -7 -20 50 -11 61 4
5 4 36 1 71 -4 34 -3 62 2 62 5 0 5 9 2 20 -4 13 -2 20 7 20 8 0 9 3 2 8 -6 4
-7 17 -3 32 4 14 7 20 8 13 1 -6 14 0 29 15 15 15 26 30 24 35 -2 4 2 7 8 7 7
0 10 7 6 18 -4 10 1 7 13 -8 11 -13 17 -28 15 -32z m1073 -550 c-3 -8 -6 -5
-6 6 -1 11 2 17 5 13 3 -3 4 -12 1 -19z m-134 -95 c-13 -2 -35 -2 -50 0 -16 2
-5 4 22 4 28 0 40 -2 28 -4z"/>
</g>
</svg>
